<svg xmlns="http://www.w3.org/2000/svg" viewBox="0 0 1923.5 1081.19"><defs><style>.cls-1,.cls-8{fill:#f0f;}.cls-1,.cls-2{opacity:0.22;}.cls-2,.cls-9{fill:aqua;}.cls-11,.cls-12,.cls-13,.cls-3,.cls-4,.cls-5,.cls-6{fill:none;}.cls-11,.cls-3,.cls-6{stroke:#f0f;}.cls-11,.cls-12,.cls-3,.cls-4,.cls-5,.cls-6{stroke-miterlimit:10;}.cls-11,.cls-12,.cls-3,.cls-4{stroke-width:3px;}.cls-10,.cls-3,.cls-4,.cls-5,.cls-6{opacity:0.2;}.cls-12,.cls-4,.cls-5{stroke:aqua;}.cls-5,.cls-6{stroke-width:4px;}.cls-7{opacity:0.19;}</style></defs><g id="Layer_2" data-name="Layer 2"><g id="Layer_1-2" data-name="Layer 1"><g id="Layer_2-2" data-name="Layer 2"><polygon class="cls-1" points="1301.65 941.12 1300.4 940.6 1297.01 960.09 1278.72 952.55 1278.49 953.89 1296.78 961.43 1293.39 980.92 1294.64 981.44 1298.03 961.95 1316.32 969.49 1316.55 968.15 1298.27 960.61 1301.65 941.12"/><polygon class="cls-2" points="794.71 160.11 794.38 158.64 773.38 164.78 768.7 143.4 767.25 143.82 771.94 165.2 750.93 171.34 751.25 172.81 772.26 166.67 776.94 188.04 778.38 187.62 773.7 166.25 794.71 160.11"/></g></g><g id="Layer_4" data-name="Layer 4"><polygon class="cls-3" points="1597.99 244.54 1631.34 259.34 1664.68 274.15 1635.19 295.62 1605.69 317.1 1601.84 280.82 1597.99 244.54"/><polygon class="cls-4" points="383.04 264.92 392.85 241.24 402.67 217.57 418.26 237.91 433.86 258.25 408.45 261.58 383.04 264.92"/><polygon class="cls-4" points="1029.49 794.11 1029.59 857.7 1029.68 921.28 974.57 889.57 919.46 857.86 974.47 825.99 1029.49 794.11"/><circle class="cls-5" cx="1634.89" cy="945.25" r="29.79"/><circle class="cls-6" cx="1145.5" cy="552.9" r="29.79"/><g class="cls-7"><circle class="cls-8" cx="1052.73" cy="19.82" r="5"/><circle class="cls-8" cx="1013.73" cy="19.82" r="5"/><circle class="cls-8" cx="974.72" cy="19.82" r="5"/><circle class="cls-8" cx="935.72" cy="19.82" r="5"/><circle class="cls-8" cx="1052.73" cy="57.82" r="5"/><circle class="cls-8" cx="1013.73" cy="57.82" r="5"/><circle class="cls-8" cx="974.72" cy="57.82" r="5"/><circle class="cls-8" cx="935.72" cy="57.82" r="5"/><circle class="cls-8" cx="1052.73" cy="95.82" r="5"/><circle class="cls-8" cx="1013.73" cy="95.82" r="5"/><circle class="cls-8" cx="974.72" cy="95.82" r="5"/><circle class="cls-8" cx="935.72" cy="95.82" r="5"/><circle class="cls-8" cx="1052.73" cy="133.82" r="5"/><circle class="cls-8" cx="1013.73" cy="133.82" r="5"/><circle class="cls-8" cx="974.72" cy="133.82" r="5"/><circle class="cls-8" cx="935.72" cy="133.82" r="5"/><circle class="cls-8" cx="1052.73" cy="171.82" r="5"/><circle class="cls-8" cx="1013.73" cy="171.82" r="5"/><circle class="cls-8" cx="974.72" cy="171.82" r="5"/><circle class="cls-8" cx="935.72" cy="171.82" r="5"/><circle class="cls-8" cx="1052.73" cy="209.82" r="5"/><circle class="cls-8" cx="1013.73" cy="209.82" r="5"/><circle class="cls-8" cx="974.72" cy="209.82" r="5"/><circle class="cls-8" cx="935.72" cy="209.82" r="5"/><circle class="cls-8" cx="1052.73" cy="247.82" r="5"/><circle class="cls-8" cx="1013.73" cy="247.82" r="5"/><circle class="cls-8" cx="974.72" cy="247.82" r="5"/><circle class="cls-8" cx="935.72" cy="247.82" r="5"/><circle class="cls-8" cx="1052.73" cy="285.82" r="5"/><circle class="cls-8" cx="1013.73" cy="285.82" r="5"/><circle class="cls-8" cx="974.72" cy="285.82" r="5"/><circle class="cls-8" cx="935.72" cy="285.82" r="5"/><circle class="cls-8" cx="1052.73" cy="323.82" r="5"/><circle class="cls-8" cx="1013.73" cy="323.82" r="5"/><circle class="cls-8" cx="974.72" cy="323.82" r="5"/><circle class="cls-8" cx="935.72" cy="323.82" r="5"/></g><g class="cls-7"><circle class="cls-9" cx="402.21" cy="1062.25" r="5"/><circle class="cls-9" cx="402.21" cy="1023.25" r="5"/><circle class="cls-9" cx="402.21" cy="984.25" r="5"/><circle class="cls-9" cx="402.21" cy="945.25" r="5"/><circle class="cls-9" cx="364.2" cy="1062.25" r="5"/><circle class="cls-9" cx="364.2" cy="1023.25" r="5"/><circle class="cls-9" cx="364.2" cy="984.25" r="5"/><circle class="cls-9" cx="364.2" cy="945.25" r="5"/><circle class="cls-9" cx="326.19" cy="1062.25" r="5"/><circle class="cls-9" cx="326.19" cy="1023.25" r="5"/><circle class="cls-9" cx="326.19" cy="984.25" r="5"/><circle class="cls-9" cx="326.19" cy="945.25" r="5"/><circle class="cls-9" cx="288.19" cy="1062.25" r="5"/><circle class="cls-9" cx="288.19" cy="1023.25" r="5"/><circle class="cls-9" cx="288.19" cy="984.25" r="5"/><circle class="cls-9" cx="288.19" cy="945.25" r="5"/><circle class="cls-9" cx="250.18" cy="1062.25" r="5"/><circle class="cls-9" cx="250.18" cy="1023.25" r="5"/><circle class="cls-9" cx="250.18" cy="984.25" r="5"/><circle class="cls-9" cx="250.18" cy="945.25" r="5"/><circle class="cls-9" cx="212.18" cy="1062.25" r="5"/><circle class="cls-9" cx="212.18" cy="1023.25" r="5"/><circle class="cls-9" cx="212.18" cy="984.25" r="5"/><circle class="cls-9" cx="212.18" cy="945.25" r="5"/><circle class="cls-9" cx="174.17" cy="1062.25" r="5"/><circle class="cls-9" cx="174.17" cy="1023.25" r="5"/><circle class="cls-9" cx="174.17" cy="984.25" r="5"/><circle class="cls-9" cx="174.17" cy="945.25" r="5"/><circle class="cls-9" cx="136.16" cy="1062.25" r="5"/><circle class="cls-9" cx="136.16" cy="1023.25" r="5"/><circle class="cls-9" cx="136.16" cy="984.25" r="5"/><circle class="cls-9" cx="136.16" cy="945.25" r="5"/><circle class="cls-9" cx="98.16" cy="1062.25" r="5"/><circle class="cls-9" cx="98.16" cy="1023.25" r="5"/><circle class="cls-9" cx="98.16" cy="984.25" r="5"/><circle class="cls-9" cx="98.16" cy="945.25" r="5"/><circle class="cls-9" cx="60.15" cy="1062.25" r="5"/><circle class="cls-9" cx="60.15" cy="1023.25" r="5"/><circle class="cls-9" cx="60.15" cy="984.25" r="5"/><circle class="cls-9" cx="60.15" cy="945.25" r="5"/><circle class="cls-9" cx="22.15" cy="1062.25" r="5"/><circle class="cls-9" cx="22.15" cy="1023.25" r="5"/><circle class="cls-9" cx="22.15" cy="984.25" r="5"/><circle class="cls-9" cx="22.15" cy="945.25" r="5"/></g><g class="cls-10"><line class="cls-11" x1="1776.84" y1="1080.03" x2="1690.62" y2="1009.02"/><line class="cls-11" x1="1805.98" y1="1080.03" x2="1690.62" y2="985.02"/><line class="cls-11" x1="1835.12" y1="1080.03" x2="1690.62" y2="961.02"/><line class="cls-11" x1="1864.27" y1="1080.03" x2="1690.62" y2="937.02"/><line class="cls-11" x1="1893.4" y1="1080.03" x2="1690.62" y2="913.02"/><polyline class="cls-11" points="1922.55 1080.03 1920.3 1078.18 1690.62 889.02"/><line class="cls-11" x1="1920.3" y1="1054.18" x2="1690.62" y2="865.02"/><line class="cls-11" x1="1920.3" y1="1030.18" x2="1690.62" y2="841.02"/><line class="cls-11" x1="1920.3" y1="1006.18" x2="1690.62" y2="817.02"/><line class="cls-11" x1="1920.3" y1="982.18" x2="1690.62" y2="793.02"/><line class="cls-11" x1="1920.3" y1="958.18" x2="1690.62" y2="769.02"/></g><g class="cls-10"><line class="cls-12" x1="545.73" y1="161.32" x2="637.96" y2="214.56"/><line class="cls-12" x1="545.73" y1="135.32" x2="637.96" y2="188.56"/><line class="cls-12" x1="545.73" y1="109.32" x2="637.96" y2="162.56"/><line class="cls-12" x1="545.73" y1="83.32" x2="637.96" y2="136.56"/><line class="cls-12" x1="545.73" y1="57.32" x2="637.96" y2="110.56"/><line class="cls-12" x1="545.73" y1="31.32" x2="637.96" y2="84.56"/><line class="cls-12" x1="545.73" y1="5.32" x2="637.96" y2="58.56"/><line class="cls-12" x1="580.52" y1="1.32" x2="637.96" y2="32.56"/></g><rect class="cls-13" y="0.03" width="1920.3" height="1080"/></g></g></svg>